<svg xmlns="http://www.w3.org/2000/svg" xmlns:xlink="http://www.w3.org/1999/xlink" width="500" zoomAndPan="magnify" viewBox="0 0 375 374.999991" height="500" preserveAspectRatio="xMidYMid meet" version="1.0"><defs><clipPath id="d02dad6b94"><path d="M 94.617188 148 L 144 148 L 144 227 L 94.617188 227 Z M 94.617188 148 " clip-rule="nonzero"/></clipPath><clipPath id="a4f495bff1"><path d="M 232 148 L 280.617188 148 L 280.617188 227 L 232 227 Z M 232 148 " clip-rule="nonzero"/></clipPath><clipPath id="e9fbfaa4e8"><path d="M 143 143.84375 L 232 143.84375 L 232 230.84375 L 143 230.84375 Z M 143 143.84375 " clip-rule="nonzero"/></clipPath></defs><g clip-path="url(#d02dad6b94)"><path fill="#7f7f7f" d="M 143.113281 226.394531 C 133.886719 215.988281 128.285156 202.316406 128.285156 187.347656 C 128.285156 172.378906 133.886719 158.707031 143.117188 148.296875 C 139.335938 149.820312 135.671875 151.527344 132.144531 153.414062 C 116.574219 161.726562 103.621094 173.433594 94.617188 187.347656 C 103.621094 201.261719 116.574219 212.96875 132.140625 221.28125 C 135.671875 223.164062 139.332031 224.875 143.113281 226.394531 Z M 143.113281 226.394531 " fill-opacity="1" fill-rule="nonzero"/></g><g clip-path="url(#a4f495bff1)"><path fill="#7f7f7f" d="M 232.121094 148.296875 C 241.351562 158.707031 246.953125 172.378906 246.953125 187.347656 C 246.953125 202.316406 241.355469 215.988281 232.125 226.394531 C 235.90625 224.875 239.570312 223.164062 243.097656 221.28125 C 258.667969 212.96875 271.621094 201.261719 280.621094 187.347656 C 271.621094 173.433594 258.667969 161.726562 243.097656 153.414062 C 239.570312 151.527344 235.90625 149.820312 232.121094 148.296875 Z M 232.121094 148.296875 " fill-opacity="1" fill-rule="nonzero"/></g><g clip-path="url(#e9fbfaa4e8)"><path fill="#010202" d="M 203.355469 176.207031 C 206.25 176.207031 208.597656 178.542969 208.597656 181.425781 C 208.597656 184.308594 206.25 186.644531 203.355469 186.644531 C 200.460938 186.644531 198.109375 184.308594 198.109375 181.425781 C 198.109375 178.542969 200.460938 176.207031 203.355469 176.207031 Z M 187.621094 143.886719 C 196.238281 143.886719 204.273438 146.371094 211.042969 150.664062 C 207.167969 152.164062 204.417969 155.910156 204.417969 160.296875 C 204.417969 166.003906 209.066406 170.628906 214.800781 170.628906 C 219.210938 170.628906 222.976562 167.894531 224.484375 164.039062 C 228.792969 170.777344 231.292969 178.773438 231.292969 187.347656 C 231.292969 211.347656 211.734375 230.808594 187.621094 230.808594 C 163.503906 230.808594 143.949219 211.347656 143.949219 187.347656 C 143.949219 163.347656 163.503906 143.886719 187.621094 143.886719 Z M 187.621094 143.886719 " fill-opacity="1" fill-rule="evenodd"/></g></svg>