<svg xmlns="http://www.w3.org/2000/svg" xmlns:xlink="http://www.w3.org/1999/xlink" width="500" zoomAndPan="magnify" viewBox="0 0 375 374.999991" height="500" preserveAspectRatio="xMidYMid meet" version="1.0"><defs><g/><clipPath id="a34e7067a4"><path d="M 94.617188 100 L 144 100 L 144 179 L 94.617188 179 Z M 94.617188 100 " clip-rule="nonzero"/></clipPath><clipPath id="01588c420e"><path d="M 232 100 L 280.617188 100 L 280.617188 179 L 232 179 Z M 232 100 " clip-rule="nonzero"/></clipPath><clipPath id="95d64d8e99"><path d="M 143 96.375 L 232 96.375 L 232 183.375 L 143 183.375 Z M 143 96.375 " clip-rule="nonzero"/></clipPath></defs><g clip-path="url(#a34e7067a4)"><path fill="#7f7f7f" d="M 143.113281 178.925781 C 133.886719 168.515625 128.285156 154.847656 128.285156 139.878906 C 128.285156 124.90625 133.886719 111.234375 143.117188 100.828125 C 139.335938 102.347656 135.671875 104.058594 132.144531 105.941406 C 116.574219 114.257812 103.621094 125.960938 94.617188 139.875 C 103.621094 153.792969 116.574219 165.496094 132.140625 173.8125 C 135.671875 175.695312 139.332031 177.40625 143.113281 178.925781 Z M 143.113281 178.925781 " fill-opacity="1" fill-rule="nonzero"/></g><g clip-path="url(#01588c420e)"><path fill="#7f7f7f" d="M 232.121094 100.828125 C 241.351562 111.234375 246.953125 124.90625 246.953125 139.878906 C 246.953125 154.847656 241.355469 168.515625 232.125 178.925781 C 235.90625 177.40625 239.570312 175.695312 243.097656 173.8125 C 258.667969 165.496094 271.621094 153.792969 280.621094 139.875 C 271.621094 125.964844 258.667969 114.257812 243.097656 105.941406 C 239.570312 104.058594 235.90625 102.347656 232.121094 100.828125 Z M 232.121094 100.828125 " fill-opacity="1" fill-rule="nonzero"/></g><g clip-path="url(#95d64d8e99)"><path fill="#010202" d="M 203.355469 128.734375 C 206.25 128.734375 208.597656 131.074219 208.597656 133.957031 C 208.597656 136.835938 206.25 139.175781 203.355469 139.175781 C 200.460938 139.175781 198.109375 136.835938 198.109375 133.957031 C 198.109375 131.074219 200.460938 128.734375 203.355469 128.734375 Z M 187.621094 96.417969 C 196.238281 96.417969 204.273438 98.902344 211.042969 103.191406 C 207.167969 104.691406 204.417969 108.441406 204.417969 112.828125 C 204.417969 118.53125 209.066406 123.160156 214.800781 123.160156 C 219.210938 123.160156 222.976562 120.425781 224.484375 116.570312 C 228.792969 123.304688 231.292969 131.300781 231.292969 139.878906 C 231.292969 163.878906 211.734375 183.339844 187.621094 183.339844 C 163.503906 183.339844 143.949219 163.878906 143.949219 139.878906 C 143.949219 115.878906 163.503906 96.417969 187.621094 96.417969 Z M 187.621094 96.417969 " fill-opacity="1" fill-rule="evenodd"/></g><g fill="#000000" fill-opacity="1"><g transform="translate(145.584784, 231.6726)"><g><path d="M 17.3125 -35.359375 C 23.050781 -35.359375 27.429688 -33.875 30.453125 -30.90625 C 33.484375 -27.9375 35 -23.523438 35 -17.671875 C 35 -11.835938 33.484375 -7.429688 30.453125 -4.453125 C 27.429688 -1.484375 23.050781 0 17.3125 0 L 4.59375 0 L 4.59375 -35.359375 Z M 16.90625 -5.875 C 20.550781 -5.875 23.273438 -6.804688 25.078125 -8.671875 C 26.878906 -10.535156 27.78125 -13.535156 27.78125 -17.671875 C 27.78125 -21.816406 26.878906 -24.820312 25.078125 -26.6875 C 23.273438 -28.550781 20.550781 -29.484375 16.90625 -29.484375 L 11.578125 -29.484375 L 11.578125 -5.875 Z M 16.90625 -5.875 "/></g></g></g><g fill="#000000" fill-opacity="1"><g transform="translate(181.05831, 231.6726)"><g><path d="M 33.9375 0 L 26.578125 0 L 23.921875 -8.15625 L 10.375 -8.15625 L 7.71875 0 L 0.53125 0 L 12.75 -35.359375 L 21.71875 -35.359375 Z M 16.8125 -27.984375 L 12.265625 -14.03125 L 21.984375 -14.03125 L 17.40625 -27.984375 Z M 16.8125 -27.984375 "/></g></g></g><g fill="#000000" fill-opacity="1"><g transform="translate(213.194254, 231.6726)"><g><path d="M 11.578125 0 L 4.59375 0 L 4.59375 -35.359375 L 11.578125 -35.359375 Z M 11.578125 0 "/></g></g></g><g fill="#545454" fill-opacity="1"><g transform="translate(116.792149, 255.922909)"><g><path d="M 1.15625 -10.359375 L 4.734375 -10.359375 C 5.359375 -10.359375 5.894531 -10.328125 6.34375 -10.265625 C 6.800781 -10.203125 7.234375 -10.046875 7.640625 -9.796875 C 8.054688 -9.546875 8.414062 -9.203125 8.71875 -8.765625 C 9.03125 -8.335938 9.273438 -7.84375 9.453125 -7.28125 C 9.628906 -6.71875 9.71875 -6.035156 9.71875 -5.234375 C 9.71875 -3.710938 9.351562 -2.457031 8.625 -1.46875 C 7.90625 -0.488281 6.660156 0 4.890625 0 L 1.15625 0 Z M 2.53125 -1.234375 L 4.75 -1.234375 C 5.195312 -1.234375 5.597656 -1.257812 5.953125 -1.3125 C 6.316406 -1.375 6.679688 -1.523438 7.046875 -1.765625 C 7.410156 -2.015625 7.710938 -2.425781 7.953125 -3 C 8.191406 -3.570312 8.3125 -4.328125 8.3125 -5.265625 C 8.3125 -5.785156 8.265625 -6.269531 8.171875 -6.71875 C 8.078125 -7.164062 7.90625 -7.570312 7.65625 -7.9375 C 7.414062 -8.3125 7.132812 -8.582031 6.8125 -8.75 C 6.488281 -8.925781 6.175781 -9.03125 5.875 -9.0625 C 5.570312 -9.101562 5.179688 -9.125 4.703125 -9.125 L 2.53125 -9.125 Z M 2.53125 -1.234375 "/></g></g></g><g fill="#545454" fill-opacity="1"><g transform="translate(131.542104, 255.922909)"><g><path d="M 2.703125 0 L 1.328125 0 L 1.328125 -10.359375 L 2.703125 -10.359375 Z M 2.703125 0 "/></g></g></g><g fill="#545454" fill-opacity="1"><g transform="translate(139.869366, 255.922909)"><g><path d="M 10.328125 -1.453125 C 9.023438 -0.367188 7.597656 0.171875 6.046875 0.171875 C 4.460938 0.171875 3.179688 -0.3125 2.203125 -1.28125 C 1.234375 -2.25 0.75 -3.535156 0.75 -5.140625 C 0.75 -6.117188 0.945312 -7.03125 1.34375 -7.875 C 1.738281 -8.71875 2.320312 -9.367188 3.09375 -9.828125 C 3.875 -10.296875 4.828125 -10.53125 5.953125 -10.53125 C 7.109375 -10.53125 8.039062 -10.273438 8.75 -9.765625 C 9.457031 -9.253906 9.929688 -8.488281 10.171875 -7.46875 L 8.9375 -7.125 C 8.75 -7.863281 8.40625 -8.421875 7.90625 -8.796875 C 7.40625 -9.171875 6.753906 -9.359375 5.953125 -9.359375 C 4.703125 -9.359375 3.757812 -8.976562 3.125 -8.21875 C 2.488281 -7.457031 2.171875 -6.457031 2.171875 -5.21875 C 2.171875 -4.300781 2.320312 -3.535156 2.625 -2.921875 C 2.9375 -2.304688 3.394531 -1.84375 4 -1.53125 C 4.601562 -1.21875 5.265625 -1.0625 5.984375 -1.0625 C 7.066406 -1.0625 8.070312 -1.414062 9 -2.125 L 9 -4.046875 L 5.953125 -4.046875 L 5.953125 -5.28125 L 10.328125 -5.28125 Z M 10.328125 -1.453125 "/></g></g></g><g fill="#545454" fill-opacity="1"><g transform="translate(155.423921, 255.922909)"><g><path d="M 2.703125 0 L 1.328125 0 L 1.328125 -10.359375 L 2.703125 -10.359375 Z M 2.703125 0 "/></g></g></g><g fill="#545454" fill-opacity="1"><g transform="translate(163.751185, 255.922909)"><g><path d="M 8.515625 -9.125 L 5.09375 -9.125 L 5.09375 0 L 3.71875 0 L 3.71875 -9.125 L 0.3125 -9.125 L 0.3125 -10.359375 L 8.515625 -10.359375 Z M 8.515625 -9.125 "/></g></g></g><g fill="#545454" fill-opacity="1"><g transform="translate(176.891939, 255.922909)"><g><path d="M 9.671875 0 L 8.125 0 L 6.90625 -3.15625 L 2.578125 -3.15625 L 1.4375 0 L -0.015625 0 L 3.96875 -10.359375 L 5.4375 -10.359375 Z M 6.484375 -4.234375 C 5.640625 -6.484375 5.160156 -7.757812 5.046875 -8.0625 C 4.941406 -8.363281 4.820312 -8.769531 4.6875 -9.28125 L 4.65625 -9.28125 C 4.519531 -8.582031 4.34375 -7.9375 4.125 -7.34375 L 2.96875 -4.234375 Z M 6.484375 -4.234375 "/></g></g></g><g fill="#545454" fill-opacity="1"><g transform="translate(190.844353, 255.922909)"><g><path d="M 7.5625 0 L 1.09375 0 L 1.09375 -10.359375 L 2.453125 -10.359375 L 2.453125 -1.234375 L 7.5625 -1.234375 Z M 7.5625 0 "/></g></g></g><g fill="#545454" fill-opacity="1"><g transform="translate(203.194622, 255.922909)"><g/></g></g><g fill="#545454" fill-opacity="1"><g transform="translate(211.521886, 255.922909)"><g><path d="M 9.671875 0 L 8.125 0 L 6.90625 -3.15625 L 2.578125 -3.15625 L 1.4375 0 L -0.015625 0 L 3.96875 -10.359375 L 5.4375 -10.359375 Z M 6.484375 -4.234375 C 5.640625 -6.484375 5.160156 -7.757812 5.046875 -8.0625 C 4.941406 -8.363281 4.820312 -8.769531 4.6875 -9.28125 L 4.65625 -9.28125 C 4.519531 -8.582031 4.34375 -7.9375 4.125 -7.34375 L 2.96875 -4.234375 Z M 6.484375 -4.234375 "/></g></g></g><g fill="#545454" fill-opacity="1"><g transform="translate(225.474299, 255.922909)"><g><path d="M 2.703125 0 L 1.328125 0 L 1.328125 -10.359375 L 2.703125 -10.359375 Z M 2.703125 0 "/></g></g></g><g fill="#545454" fill-opacity="1"><g transform="translate(233.801563, 255.922909)"><g><path d="M 1.15625 -10.359375 L 4.734375 -10.359375 C 5.359375 -10.359375 5.894531 -10.328125 6.34375 -10.265625 C 6.800781 -10.203125 7.234375 -10.046875 7.640625 -9.796875 C 8.054688 -9.546875 8.414062 -9.203125 8.71875 -8.765625 C 9.03125 -8.335938 9.273438 -7.84375 9.453125 -7.28125 C 9.628906 -6.71875 9.71875 -6.035156 9.71875 -5.234375 C 9.71875 -3.710938 9.351562 -2.457031 8.625 -1.46875 C 7.90625 -0.488281 6.660156 0 4.890625 0 L 1.15625 0 Z M 2.53125 -1.234375 L 4.75 -1.234375 C 5.195312 -1.234375 5.597656 -1.257812 5.953125 -1.3125 C 6.316406 -1.375 6.679688 -1.523438 7.046875 -1.765625 C 7.410156 -2.015625 7.710938 -2.425781 7.953125 -3 C 8.191406 -3.570312 8.3125 -4.328125 8.3125 -5.265625 C 8.3125 -5.785156 8.265625 -6.269531 8.171875 -6.71875 C 8.078125 -7.164062 7.90625 -7.570312 7.65625 -7.9375 C 7.414062 -8.3125 7.132812 -8.582031 6.8125 -8.75 C 6.488281 -8.925781 6.175781 -9.03125 5.875 -9.0625 C 5.570312 -9.101562 5.179688 -9.125 4.703125 -9.125 L 2.53125 -9.125 Z M 2.53125 -1.234375 "/></g></g></g><g fill="#545454" fill-opacity="1"><g transform="translate(248.551513, 255.922909)"><g><path d="M 8.875 0 L 1.140625 0 L 1.140625 -10.359375 L 8.640625 -10.359375 L 8.640625 -9.125 L 2.515625 -9.125 L 2.515625 -5.96875 L 8.25 -5.96875 L 8.25 -4.734375 L 2.515625 -4.734375 L 2.515625 -1.234375 L 8.875 -1.234375 Z M 8.875 0 "/></g></g></g><g fill="#545454" fill-opacity="1"><g transform="translate(127.937856, 275.427895)"><g><path d="M 2.703125 0 L 1.328125 0 L 1.328125 -10.359375 L 2.703125 -10.359375 Z M 2.703125 0 "/></g></g></g><g fill="#545454" fill-opacity="1"><g transform="translate(136.265118, 275.427895)"><g><path d="M 1.15625 -10.359375 L 4.734375 -10.359375 C 5.359375 -10.359375 5.894531 -10.328125 6.34375 -10.265625 C 6.800781 -10.203125 7.234375 -10.046875 7.640625 -9.796875 C 8.054688 -9.546875 8.414062 -9.203125 8.71875 -8.765625 C 9.03125 -8.335938 9.273438 -7.84375 9.453125 -7.28125 C 9.628906 -6.71875 9.71875 -6.035156 9.71875 -5.234375 C 9.71875 -3.710938 9.351562 -2.457031 8.625 -1.46875 C 7.90625 -0.488281 6.660156 0 4.890625 0 L 1.15625 0 Z M 2.53125 -1.234375 L 4.75 -1.234375 C 5.195312 -1.234375 5.597656 -1.257812 5.953125 -1.3125 C 6.316406 -1.375 6.679688 -1.523438 7.046875 -1.765625 C 7.410156 -2.015625 7.710938 -2.425781 7.953125 -3 C 8.191406 -3.570312 8.3125 -4.328125 8.3125 -5.265625 C 8.3125 -5.785156 8.265625 -6.269531 8.171875 -6.71875 C 8.078125 -7.164062 7.90625 -7.570312 7.65625 -7.9375 C 7.414062 -8.3125 7.132812 -8.582031 6.8125 -8.75 C 6.488281 -8.925781 6.175781 -9.03125 5.875 -9.0625 C 5.570312 -9.101562 5.179688 -9.125 4.703125 -9.125 L 2.53125 -9.125 Z M 2.53125 -1.234375 "/></g></g></g><g fill="#545454" fill-opacity="1"><g transform="translate(151.015073, 275.427895)"><g><path d="M 8.875 0 L 1.140625 0 L 1.140625 -10.359375 L 8.640625 -10.359375 L 8.640625 -9.125 L 2.515625 -9.125 L 2.515625 -5.96875 L 8.25 -5.96875 L 8.25 -4.734375 L 2.515625 -4.734375 L 2.515625 -1.234375 L 8.875 -1.234375 Z M 8.875 0 "/></g></g></g><g fill="#545454" fill-opacity="1"><g transform="translate(164.967483, 275.427895)"><g><path d="M 9.296875 0 L 7.890625 0 L 2.46875 -8.125 L 2.4375 -8.125 L 2.4375 0 L 1.140625 0 L 1.140625 -10.359375 L 2.546875 -10.359375 L 7.953125 -2.21875 L 7.984375 -2.21875 L 7.984375 -10.359375 L 9.296875 -10.359375 Z M 9.296875 0 "/></g></g></g><g fill="#545454" fill-opacity="1"><g transform="translate(179.717439, 275.427895)"><g><path d="M 8.515625 -9.125 L 5.09375 -9.125 L 5.09375 0 L 3.71875 0 L 3.71875 -9.125 L 0.3125 -9.125 L 0.3125 -10.359375 L 8.515625 -10.359375 Z M 8.515625 -9.125 "/></g></g></g><g fill="#545454" fill-opacity="1"><g transform="translate(192.858194, 275.427895)"><g><path d="M 2.703125 0 L 1.328125 0 L 1.328125 -10.359375 L 2.703125 -10.359375 Z M 2.703125 0 "/></g></g></g><g fill="#545454" fill-opacity="1"><g transform="translate(201.185458, 275.427895)"><g><path d="M 8.140625 -9.125 L 2.53125 -9.125 L 2.53125 -5.921875 L 7.390625 -5.921875 L 7.390625 -4.6875 L 2.53125 -4.6875 L 2.53125 0 L 1.15625 0 L 1.15625 -10.359375 L 8.140625 -10.359375 Z M 8.140625 -9.125 "/></g></g></g><g fill="#545454" fill-opacity="1"><g transform="translate(214.326212, 275.427895)"><g><path d="M 2.703125 0 L 1.328125 0 L 1.328125 -10.359375 L 2.703125 -10.359375 Z M 2.703125 0 "/></g></g></g><g fill="#545454" fill-opacity="1"><g transform="translate(222.653476, 275.427895)"><g><path d="M 8.875 0 L 1.140625 0 L 1.140625 -10.359375 L 8.640625 -10.359375 L 8.640625 -9.125 L 2.515625 -9.125 L 2.515625 -5.96875 L 8.25 -5.96875 L 8.25 -4.734375 L 2.515625 -4.734375 L 2.515625 -1.234375 L 8.875 -1.234375 Z M 8.875 0 "/></g></g></g><g fill="#545454" fill-opacity="1"><g transform="translate(236.60589, 275.427895)"><g><path d="M 10.28125 0 L 8.5625 0 C 7.53125 -1.625 6.890625 -2.625 6.640625 -3 C 6.390625 -3.375 6.125 -3.691406 5.84375 -3.953125 C 5.570312 -4.222656 5.316406 -4.394531 5.078125 -4.46875 C 4.835938 -4.539062 4.515625 -4.578125 4.109375 -4.578125 L 2.53125 -4.578125 L 2.53125 0 L 1.15625 0 L 1.15625 -10.359375 L 5.75 -10.359375 C 6.375 -10.359375 6.894531 -10.316406 7.3125 -10.234375 C 7.738281 -10.148438 8.113281 -9.976562 8.4375 -9.71875 C 8.757812 -9.46875 9.003906 -9.144531 9.171875 -8.75 C 9.347656 -8.363281 9.4375 -7.957031 9.4375 -7.53125 C 9.4375 -6.738281 9.1875 -6.101562 8.6875 -5.625 C 8.195312 -5.15625 7.476562 -4.859375 6.53125 -4.734375 L 6.53125 -4.703125 C 7.21875 -4.398438 7.867188 -3.769531 8.484375 -2.8125 Z M 2.53125 -5.796875 L 5.46875 -5.796875 C 6.0625 -5.796875 6.53125 -5.847656 6.875 -5.953125 C 7.21875 -6.054688 7.492188 -6.253906 7.703125 -6.546875 C 7.910156 -6.835938 8.015625 -7.164062 8.015625 -7.53125 C 8.015625 -8 7.84375 -8.394531 7.5 -8.71875 C 7.15625 -9.050781 6.585938 -9.21875 5.796875 -9.21875 L 2.53125 -9.21875 Z M 2.53125 -5.796875 "/></g></g></g></svg>