<svg width="500" height="500" viewBox="0 0 500 500" fill="none" xmlns="http://www.w3.org/2000/svg">
<rect width="500" height="500" rx="50" fill="white"/>
<mask id="mask0_52_241" style="mask-type:luminance" maskUnits="userSpaceOnUse" x="126" y="133" width="66" height="106">
<path d="M126.156 133.333H192V238.667H126.156V133.333Z" fill="white"/>
</mask>
<g mask="url(#mask0_52_241)">
<path d="M190.818 238.568C178.516 224.688 171.047 206.464 171.047 186.505C171.047 166.542 178.516 148.313 190.823 134.438C185.781 136.464 180.896 138.745 176.193 141.255C155.432 152.344 138.161 167.948 126.156 186.5C138.161 205.057 155.432 220.661 176.188 231.75C180.896 234.26 185.776 236.542 190.818 238.568Z" fill="#7F7F7F"/>
</g>
<mask id="mask1_52_241" style="mask-type:luminance" maskUnits="userSpaceOnUse" x="309" y="133" width="66" height="106">
<path d="M309.333 133.333H374.156V238.667H309.333V133.333Z" fill="white"/>
</mask>
<g mask="url(#mask1_52_241)">
<path d="M309.495 134.438C321.802 148.313 329.271 166.542 329.271 186.505C329.271 206.464 321.807 224.688 309.5 238.568C314.542 236.542 319.427 234.26 324.13 231.75C344.891 220.661 362.162 205.057 374.162 186.5C362.162 167.953 344.891 152.344 324.13 141.255C319.427 138.745 314.542 136.464 309.495 134.438Z" fill="#7F7F7F"/>
</g>
<mask id="mask2_52_241" style="mask-type:luminance" maskUnits="userSpaceOnUse" x="190" y="128" width="120" height="117">
<path d="M190.667 128.5H309.333V244.5H190.667V128.5Z" fill="white"/>
</mask>
<g mask="url(#mask2_52_241)">
<path fill-rule="evenodd" clip-rule="evenodd" d="M271.141 171.646C275 171.646 278.13 174.766 278.13 178.609C278.13 182.448 275 185.568 271.141 185.568C267.281 185.568 264.146 182.448 264.146 178.609C264.146 174.766 267.281 171.646 271.141 171.646ZM250.161 128.557C261.651 128.557 272.365 131.87 281.391 137.589C276.224 139.589 272.557 144.589 272.557 150.438C272.557 158.042 278.755 164.214 286.401 164.214C292.281 164.214 297.302 160.568 299.312 155.427C305.057 164.406 308.391 175.068 308.391 186.505C308.391 218.505 282.312 244.453 250.161 244.453C218.005 244.453 191.932 218.505 191.932 186.505C191.932 154.505 218.005 128.557 250.161 128.557Z" fill="#010202"/>
</g>
<path d="M217.196 261.751C224.847 261.751 230.686 263.73 234.717 267.688C238.759 271.647 240.78 277.532 240.78 285.334C240.78 293.116 238.759 298.991 234.717 302.959C230.686 306.918 224.847 308.897 217.196 308.897H200.238V261.751H217.196ZM216.655 301.063C221.514 301.063 225.144 299.824 227.551 297.334C229.952 294.85 231.155 290.85 231.155 285.334C231.155 279.808 229.952 275.803 227.551 273.313C225.144 270.829 221.514 269.584 216.655 269.584H209.551V301.063H216.655Z" fill="black"/>
<path d="M286.661 308.897H276.849L273.307 298.022H255.244L251.703 308.897H242.119L258.411 261.751H270.369L286.661 308.897ZM263.828 271.584L257.765 290.188H270.724L264.619 271.584H263.828Z" fill="black"/>
<path d="M299.697 308.897H290.384V261.751H299.697V308.897Z" fill="black"/>
<path d="M157.265 327.418H162.035C162.869 327.418 163.582 327.46 164.181 327.543C164.791 327.626 165.369 327.835 165.91 328.168C166.462 328.501 166.942 328.96 167.348 329.543C167.765 330.116 168.087 330.772 168.327 331.522C168.561 332.272 168.681 333.184 168.681 334.251C168.681 336.283 168.192 337.954 167.223 339.272C166.265 340.579 164.603 341.23 162.244 341.23H157.265V327.418ZM159.098 339.585H162.056C162.65 339.585 163.186 339.553 163.66 339.48C164.145 339.397 164.629 339.199 165.119 338.876C165.603 338.543 166.004 337.996 166.327 337.23C166.645 336.47 166.806 335.46 166.806 334.21C166.806 333.517 166.744 332.871 166.619 332.272C166.494 331.678 166.265 331.137 165.931 330.647C165.608 330.147 165.233 329.788 164.806 329.564C164.374 329.329 163.957 329.189 163.556 329.147C163.15 329.095 162.629 329.064 161.994 329.064H159.098V339.585Z" fill="#545454"/>
<path d="M178.994 341.23H177.16V327.418H178.994V341.23Z" fill="#545454"/>
<path d="M200.263 339.293C198.524 340.741 196.623 341.46 194.555 341.46C192.44 341.46 190.732 340.814 189.43 339.522C188.138 338.231 187.492 336.517 187.492 334.376C187.492 333.074 187.753 331.856 188.284 330.731C188.81 329.606 189.586 328.741 190.617 328.126C191.659 327.501 192.93 327.189 194.43 327.189C195.972 327.189 197.211 327.533 198.159 328.21C199.102 328.892 199.732 329.913 200.055 331.272L198.409 331.731C198.159 330.746 197.701 330.001 197.034 329.501C196.367 329.001 195.498 328.751 194.43 328.751C192.763 328.751 191.503 329.262 190.659 330.272C189.81 331.288 189.388 332.621 189.388 334.272C189.388 335.496 189.586 336.517 189.992 337.335C190.409 338.158 191.018 338.772 191.826 339.189C192.628 339.606 193.513 339.814 194.472 339.814C195.914 339.814 197.253 339.345 198.492 338.397V335.835H194.43V334.189H200.263V339.293Z" fill="#545454"/>
<path d="M210.836 341.23H209.003V327.418H210.836V341.23Z" fill="#545454"/>
<path d="M229.689 329.064H225.127V341.23H223.293V329.064H218.752V327.418H229.689V329.064Z" fill="#545454"/>
<path d="M248.752 341.23H246.689L245.064 337.022H239.293L237.773 341.23H235.835L241.148 327.418H243.106L248.752 341.23ZM244.502 335.585C243.377 332.585 242.736 330.887 242.585 330.48C242.444 330.079 242.283 329.538 242.106 328.855H242.064C241.882 329.788 241.648 330.647 241.356 331.439L239.814 335.585H244.502Z" fill="#545454"/>
<path d="M264.542 341.23H255.917V327.418H257.73V339.585H264.542V341.23Z" fill="#545454"/>
<path d="M294.925 341.23H292.862L291.237 337.022H285.467L283.946 341.23H282.008L287.321 327.418H289.279L294.925 341.23ZM290.675 335.585C289.55 332.585 288.909 330.887 288.758 330.48C288.618 330.079 288.456 329.538 288.279 328.855H288.237C288.055 329.788 287.821 330.647 287.529 331.439L285.987 335.585H290.675Z" fill="#545454"/>
<path d="M304.237 341.23H302.403V327.418H304.237V341.23Z" fill="#545454"/>
<path d="M313.277 327.418H318.048C318.881 327.418 319.595 327.46 320.194 327.543C320.803 327.626 321.381 327.835 321.923 328.168C322.475 328.501 322.954 328.96 323.36 329.543C323.777 330.116 324.1 330.772 324.34 331.522C324.574 332.272 324.694 333.184 324.694 334.251C324.694 336.283 324.204 337.954 323.235 339.272C322.277 340.579 320.616 341.23 318.256 341.23H313.277V327.418ZM315.11 339.585H318.069C318.663 339.585 319.199 339.553 319.673 339.48C320.157 339.397 320.642 339.199 321.131 338.876C321.616 338.543 322.017 337.996 322.34 337.23C322.657 336.47 322.819 335.46 322.819 334.21C322.819 333.517 322.756 332.871 322.631 332.272C322.506 331.678 322.277 331.137 321.944 330.647C321.621 330.147 321.246 329.788 320.819 329.564C320.386 329.329 319.97 329.189 319.569 329.147C319.163 329.095 318.642 329.064 318.006 329.064H315.11V339.585Z" fill="#545454"/>
<path d="M343.235 341.23H332.923V327.418H342.923V329.064H334.756V333.272H342.402V334.918H334.756V339.585H343.235V341.23Z" fill="#545454"/>
<path d="M174.188 367.237H172.355V353.425H174.188V367.237Z" fill="#545454"/>
<path d="M183.229 353.425H187.999C188.833 353.425 189.546 353.466 190.145 353.55C190.755 353.633 191.333 353.841 191.874 354.175C192.426 354.508 192.906 354.966 193.312 355.55C193.729 356.123 194.051 356.779 194.291 357.529C194.525 358.279 194.645 359.19 194.645 360.258C194.645 362.289 194.156 363.961 193.187 365.279C192.229 366.586 190.567 367.237 188.208 367.237H183.229V353.425ZM185.062 365.591H188.02C188.614 365.591 189.15 365.56 189.624 365.487C190.109 365.404 190.593 365.206 191.083 364.883C191.567 364.55 191.968 364.003 192.291 363.237C192.609 362.477 192.77 361.466 192.77 360.216C192.77 359.524 192.708 358.878 192.583 358.279C192.458 357.685 192.229 357.144 191.895 356.654C191.572 356.154 191.197 355.795 190.77 355.571C190.338 355.336 189.921 355.196 189.52 355.154C189.114 355.102 188.593 355.071 187.958 355.071H185.062V365.591Z" fill="#545454"/>
<path d="M213.187 367.237H202.874V353.425H212.874V355.071H204.708V359.279H212.353V360.925H204.708V365.591H213.187V367.237Z" fill="#545454"/>
<path d="M232.353 367.237H230.478L223.248 356.404H223.207V367.237H221.478V353.425H223.353L230.561 364.279H230.603V353.425H232.353V367.237Z" fill="#545454"/>
<path d="M250.977 355.071H246.415V367.237H244.582V355.071H240.04V353.425H250.977V355.071Z" fill="#545454"/>
<path d="M260.748 367.237H258.915V353.425H260.748V367.237Z" fill="#545454"/>
<path d="M279.101 355.071H271.622V359.341H278.101V360.987H271.622V367.237H269.789V353.425H279.101V355.071Z" fill="#545454"/>
<path d="M289.372 367.237H287.539V353.425H289.372V367.237Z" fill="#545454"/>
<path d="M308.705 367.237H298.392V353.425H308.392V355.071H300.225V359.279H307.871V360.925H300.225V365.591H308.705V367.237Z" fill="#545454"/>
<path d="M329.183 367.237H326.891C325.516 365.071 324.662 363.737 324.329 363.237C323.995 362.737 323.641 362.315 323.266 361.966C322.902 361.607 322.563 361.378 322.245 361.279C321.922 361.185 321.495 361.133 320.954 361.133H318.85V367.237H317.016V353.425H323.141C323.975 353.425 324.667 353.482 325.225 353.591C325.792 353.706 326.292 353.935 326.725 354.279C327.152 354.612 327.48 355.045 327.704 355.571C327.938 356.086 328.058 356.628 328.058 357.196C328.058 358.253 327.725 359.102 327.058 359.737C326.402 360.362 325.443 360.758 324.183 360.925V360.966C325.1 361.373 325.964 362.211 326.787 363.487L329.183 367.237ZM318.85 359.508H322.766C323.558 359.508 324.183 359.44 324.641 359.3C325.1 359.164 325.464 358.899 325.745 358.508C326.021 358.123 326.162 357.685 326.162 357.196C326.162 356.571 325.933 356.045 325.475 355.612C325.016 355.17 324.256 354.946 323.204 354.946H318.85V359.508Z" fill="#545454"/>
</svg>
