<svg xmlns="http://www.w3.org/2000/svg" xmlns:xlink="http://www.w3.org/1999/xlink" width="500" zoomAndPan="magnify" viewBox="0 0 375 374.999991" height="500" preserveAspectRatio="xMidYMid meet" version="1.0"><defs><clipPath id="fd7b1e77c9"><path d="M 94.617188 148 L 144 148 L 144 227 L 94.617188 227 Z M 94.617188 148 " clip-rule="nonzero"/></clipPath><clipPath id="1339c701ad"><path d="M 231 148 L 280.617188 148 L 280.617188 227 L 231 227 Z M 231 148 " clip-rule="nonzero"/></clipPath><clipPath id="6b03d07cee"><path d="M 143 143.84375 L 232 143.84375 L 232 230.84375 L 143 230.84375 Z M 143 143.84375 " clip-rule="nonzero"/></clipPath></defs><g clip-path="url(#fd7b1e77c9)"><path fill="#010202" d="M 143.050781 226.683594 C 133.835938 216.238281 128.242188 202.519531 128.242188 187.5 C 128.242188 172.476562 133.835938 158.757812 143.054688 148.3125 C 139.277344 149.839844 135.617188 151.554688 132.09375 153.445312 C 116.542969 161.789062 103.609375 173.535156 94.617188 187.5 C 103.609375 201.460938 116.542969 213.210938 132.09375 221.554688 C 135.617188 223.441406 139.273438 225.160156 143.050781 226.683594 Z M 143.050781 226.683594 " fill-opacity="1" fill-rule="nonzero"/></g><g clip-path="url(#1339c701ad)"><path fill="#010202" d="M 231.941406 148.3125 C 241.15625 158.757812 246.753906 172.476562 246.753906 187.5 C 246.753906 202.519531 241.160156 216.238281 231.941406 226.683594 C 235.722656 225.160156 239.378906 223.441406 242.902344 221.554688 C 258.449219 213.210938 271.386719 201.460938 280.375 187.5 C 271.386719 173.535156 258.449219 161.789062 242.902344 153.445312 C 239.375 151.554688 235.71875 149.839844 231.941406 148.3125 Z M 231.941406 148.3125 " fill-opacity="1" fill-rule="nonzero"/></g><g clip-path="url(#6b03d07cee)"><path fill="#010202" d="M 203.210938 176.320312 C 206.105469 176.320312 208.449219 178.664062 208.449219 181.558594 C 208.449219 184.449219 206.105469 186.796875 203.210938 186.796875 C 200.320312 186.796875 197.972656 184.449219 197.972656 181.558594 C 197.972656 178.664062 200.320312 176.320312 203.210938 176.320312 Z M 187.496094 143.886719 C 196.101562 143.886719 204.128906 146.382812 210.890625 150.6875 C 207.015625 152.191406 204.273438 155.953125 204.273438 160.355469 C 204.273438 166.082031 208.914062 170.726562 214.640625 170.726562 C 219.042969 170.726562 222.804688 167.980469 224.3125 164.109375 C 228.613281 170.871094 231.109375 178.894531 231.109375 187.5 C 231.109375 211.585938 211.578125 231.113281 187.496094 231.113281 C 163.414062 231.113281 143.882812 211.585938 143.882812 187.5 C 143.882812 163.417969 163.414062 143.886719 187.496094 143.886719 Z M 187.496094 143.886719 " fill-opacity="1" fill-rule="evenodd"/></g></svg>